<svg xmlns="http://www.w3.org/2000/svg" viewBox="0 0 300 300" xmlns:v="https://vecta.io/nano"><style><![CDATA[.B{fill:#e3c9a7}.C{fill:#caa068}.D{fill:#9da19f}.E{fill:#6f553c}.F{fill:#fdfdfd}.G{fill:#a9bbd6}.H{fill:#59655e}.I{fill:#d5913b}]]></style><path d="M0 0v300h300V0H0z" class="F"/><path d="M164 49v1-1m-3 1 1 1-1-1z" class="B"/><path d="M160 51v3l-1 1v2h1l1 1h1v3l2 4v1l-1 2-2 1 1 1 2 2 2 2v1l1 2v4l2 1h8l-1-1v-1l-1-1-2-3-2-6-1-2-1-3-2-6-1-6-1-1v-2h-2l-1 1h-2zm-33 0-2 1h-1l-2 1h-2v2h4v2l1 1 1 4 1 5 1 4 1 1v2l-2-1-1-1-3-2-5-3-5-3-5-3-4-2h-4l-1 1h-3l1 1h1l1 1 1 1 1 1 1 2 1 2v1l1 2v2l1 4 1 2 1 6v2l-1 1-1 2 2-1 5-1 1-1h2l-1-1-2-1h-1l-1-1-2-3v-2l-1-2-1-5-1-4-1-1v-2l9 6 4 3 4 2 5 4 2 1h2l1 1h2l-4-15-2-5-1-4v-3l1-2v-2z" class="H"/><path d="M159 51v4l1-1v-2l-1-1m6 1h1-1m-44 0 1 1-1-1z" class="B"/><path d="m119 53-1 2h2v-2h-1zm40 4v1-1z" class="D"/><path d="m160 57-1 2-2 6v1h-1v2h8l-1-3-1-2-1-4v-1l-1-1z" class="F"/><path d="M199 57v1l2 1-1-2h-1z" class="B"/><path d="m200 57 1 1v1l2 1-1 2-1 1-2 6-2 3-1 3-1 3-1 2-2 2-1 1h-1l-2 1 1 1h1v1l4 1 2 1 1 1h1l2 1-1-2v-5l1-2 1-3 2-3v-2l2-4 1-1v-1l1-2 1-1 2-1h1l2 1 1 2 1 2v2l-1 1-1 2-1 2h-1l-1 1-2 1h-3v5a71 71 0 0 0 2 7v1l1 2 2 2 1 1 2 1v-5l-1-5-1-2v-4l-1-2h2l1-1h3l1-1 2-1 1-2 1-2v-2l-1-1v-1l-1-1-2-2-1-1a41 41 0 0 0-6-3l-4-1-4-1-2-1z" class="H"/><path d="M124 59h1-1m2 0h1-1z" class="D"/><path d="m158 58-1 2v1l-2 3-2 5-2 4-1 1-1 2-1 1-1 1-2 1 1 1h3l2 1h3l-1-1-2-1v-2l1-1 1-2v-1l1-1 2-1 1-1h3l-1-1h-4v-2h1v-2l2-3v-4z" class="H"/><path d="m211 60 1 1-1-1M96 61l1 1-1-1z" class="B"/><path d="M98 61v1-1z" class="D"/><path d="m213 61 1 1-1-1M99 62l1 1-1-1zm63 1h1-1z" class="B"/><path d="M207 64h1-1z" class="G"/><path d="M126 67h1-1m27-1 1 1-1-1z" class="B"/><use href="#B" class="D"/><path d="M160 68v1-1m3 0v1-1z" class="B"/><path d="M221 69v3l1-1v-1l-1-1m-118 1 1 1-1-1z" class="G"/><path d="m156 70 1 1h6l-1-1h-6zm-50 5h1-1zm66 0h1-1m40-1 1 1-1-1zm-7 2 1 1h4l-1-1h-4m12 0 1 1-1-1zM70 77v1-1z" class="D"/><path d="m71 77-2 1h-1l-1 1-2 1-1 1h-1l-2 2-3 6-1 5v4l1 1v2l1 2 2 2 1 1 2 2h1l1 1h1l2 1h7l2-1h1l2-1 2-1 1-1 1-1 2-2 2-3 1-3v-6l-1-2v-2l-1-2-3-4-3-2-2-1h-1l-2-1h-6z" class="H"/><path d="m204 77 1 1-1-1m7 0 1 1h3l-1-1h-3z" class="D"/><path d="M105 79h1-1zm99 1h1-1z" class="B"/><path d="M67 80v1-1z" class="G"/><use href="#B" x="-87" y="12" class="B"/><path d="M106 81h1-1z" class="D"/><path d="M146 80v1-1z" class="G"/><path d="m147 80 1 1h2l-1-1h-2zm19 0v1h1l1 1h1l-1-1-2-1m9 0 1 1-1-1m18 0 1 1-1-1z" class="D"/><path d="M211 81h1-1z" class="B"/><path d="m65 82-1 1-2 2v2l-1 2 1 1v3l2 5 2 2 1 1v1l2 1 1 1 2 1 2 1h1l1 1h3l1-1h2l1-2 1-1 1-2v-6l-7-11-2-1-1-1h-2l-1-1h-2l-5 1z" class="F"/><path d="m63 82 1 1-1-1m12 0v1l2 1-1-2h-1zm100 0v1-1z" class="B"/><path d="M211 83h1-1z" class="G"/><path d="m61 84 1 1-1-1m17 0 1 1-1-1m9 0 1 1-1-1m20 0v3l1-1v-1l-1-1m2 0 1 1-1-1zm102 1h1-1z" class="D"/><path d="M113 85v1-1m75 0 1 1-1-1z" class="B"/><path d="M241 85v1-1z" class="D"/><path d="m246 117-1-1h-5l-4-2-1-2-1-1-1-1v-1l-1-2v-3l1-2v-1l1-2v-1l2-2 1-2h1l2-2 6-2h5l1 1h1l2 2c1 1 3 2 3 4v4l-1 2 2-1h1l1-1 2-1-1-2-1-1a78 78 0 0 0-7-8l-2-1-2-1a26 26 0 0 0-7-1h-4l-2 1h-1l-1 1-2 1-1 1-2 2-1 2-1 2v2l-1 2 1 5 1 2v2l2 2v1l1 1 2 2 6 3 6-1z" class="H"/><path d="M245 85v1-1z" class="D"/><path d="M205 87h1-1z" class="B"/><path d="M114 87v1-1m79 0 1 1-1-1z" class="G"/><path d="m107 89 1 1-1-1m31 0 1 1h6l-1-1h-6z" class="B"/><path d="m145 89 1 1h15l-1-1h-15z" class="C"/><path d="m161 89 1 1h6l-1-1h-6m36 0 1 1-1-1z" class="B"/><path d="m198 89 1 1-1-1m2 0 1 1-1-1m12 1h1-1m20-1 1 1-1-1m14 0 1 1h2l-1-1h-2m8 0 1 1-1-1z" class="D"/><use href="#C" class="B"/><use href="#C" x="4" class="C"/><path d="M67 177h-2l-1 1-5 1-4 2-6 2-6 2-3 2-3 1-1 1-2 1v2h1v1l1 4 2 5v1l1 2-2 1-5 3-4 1-3 2h-2l-1 1h-2l1 1 1 1 1 1h3l2 1 2 1 2 1 2 1h1v1l1 2v1l-1 2-1 2-1 2-1 2-1 1-1 2 7-1h17l4-1h2l2-1h2l1-1 2-1-1-1h-5l-5-1-3-1a157 157 0 0 1-9-3h-2l-2-1 2-1 1-1 3-1 5-3 4-2 4-2 4-1 4-2 2-1 4-1 3-1 4-1 2-1h4l1 1 2 1 3 2a124 124 0 0 0 16 10 108 108 0 0 0 15 5l5 1 4 1 4 1a81 81 0 0 0 8 1h21l5-1 4-1 4-1h4l6-2 3-2a86 86 0 0 0 11-4l4-3 6-3 2-2 2-1 4-2 2-1 1 1h2l2 1 9 2 5 2 2 1h3l1 1 1 1 1 1h1l2 1 2 1 4 2 2 1 2 2 2 1-1 1h-1l-1 1v1h-6l-4 1v1h-1l-1 1h-12l1 1 1 1 2 1h2a67 67 0 0 0 9 2h10l3 1 4-1h2l1 1h2v-1l-1-2-3-3-1-2v-2l-1-1v-2l1-1 1-1 1-1h1l1-1 2-1h2l2-1h3l1-1 1-1 1-1h-2l-1-1h-2l-4-2-7-3-1-1h-2v-2l2-5 2-6v-1l1-2-2-1-1-1-2-1-5-2-4-2-5-1-3-1-3-2-5-1-1-1h-2l1-2v-1l1-2v-3l1-5v-10a52 52 0 0 0-3-14 74 74 0 0 0-11-19 64 64 0 0 0-14-13l-3-2a78 78 0 0 0-10-6l-3-1-2-1-4-2-5-2-4-1-4-1h-4l-5-1-4-1h-24l-4 1a197 197 0 0 0-26 7l-5 2-5 3-3 2-3 2-3 2a90 90 0 0 0-7 5l-2 2-3 4-3 4a56 56 0 0 0-9 15v2l-1 3-1 4-1 5v12l1 5 1 4v3z" class="I"/><use href="#C" x="36" class="C"/><path d="M172 90v1-1m28 0 1 1-1-1z" class="B"/><path d="m252 90 1 1-1-1m3 0v1l2 1-1-2h-1z" class="D"/><path d="m256 90 1 1-1-1M56 91l1 1-1-1z" class="B"/><path d="m130 91 1 1h2l-1-1h-2m43 0 1 1h3l-1-1h-3z" class="C"/><path d="m253 91 1 1-1-1M56 92v4l1-1v-2l-1-1z" class="G"/><path d="M125 92v1-1z" class="B"/><path d="M127 92v1-1m52 0v1-1z" class="C"/><path d="M181 92v1-1z" class="B"/><path d="M123 93v1-1m60 0 1 1-1-1z" class="C"/><path d="M185 93v1-1z" class="B"/><path d="m258 93 1 1-1-1M62 94l1 1-1-1zm28 1h1-1z" class="G"/><path d="M119 94v1-1m66 0 1 1h2l-1-1h-2z" class="C"/><path d="m228 94 1 1-1-1m8 0 1 1-1-1m21 0 1 1-1-1M62 95l1 1-1-1z" class="D"/><path d="M191 95v1-1m19 0 1 1-1-1z" class="B"/><path d="m213 95-1 2h2v-2h-1m22 0 1 1-1-1m24 0 1 1-1-1z" class="D"/><path d="M56 97h1-1m7-1 1 1-1-1zm22 2h1-1m23 1h1l2-1h-2l-1 1zm150-1h1-1z" class="B"/><path d="m261 97 1 1-1-1M64 98l1 1-1-1z" class="G"/><path d="m109 98 1 1-1-1m29 0 1 1h4l-1-1h-4z" class="C"/><use href="#C" x="12" y="8" class="B"/><path d="m90 124 2 1h1l2 1 1-1h18l-1-1h-3l2-1h3l2 1 3 1h13l5-1h4l-1-1v-1l-2-2h-1l-2-1-4-1h-4l-5-1h-3l2-1h24l5-1 4 1h27l5 1h2l2-1 2-1h1l1-1 1-2 1-1 1-2-2-1h-1l-5-3-7-2-4-1-5-1-5-1-4-1h-25l-3 1h-4l-4 2-5 1-4 1-4 1-2 1-3 2-3 1-2 1-5 4-5 4-4 3v1h-1l-1 2z" class="F"/><path d="M149 98v1-1m2 0 1 1h3l-1-1h-3m6 0 1 1h5l-1-1h-5z" class="B"/><path d="m163 98 1 1h3l-1-1h-3m33 0 1 1-1-1z" class="C"/><path d="M262 98v1l2 1-1-2h-1z" class="D"/><path d="M134 99v1-1z" class="C"/><path d="m135 99 1 1h3l-1-1h-3m32 0 1 1h3l-1-1h-3z" class="B"/><path d="M172 99v1-1z" class="C"/><path d="M200 99v1-1m33 0 1 1-1-1zm-131 3h1l2-1h-2l-1 1z" class="B"/><path d="M129 100v1-1z" class="C"/><path d="m130 100 1 1h2l-1-1h-2m43 0 1 1h2l-1-1h-2z" class="B"/><path d="M177 100v1-1z" class="C"/><path d="m201 100 1 1 2 1-1-1-2-1zm-74 1 1 1h2l-1-1h-2m51 0v1-1z" class="B"/><path d="M180 101v1-1m22 0 1 1-1-1z" class="C"/><path d="m123 102 1 1-1-1m57 0 1 1h1l2 1h2l-1-1h-1l-2-1h-2z" class="B"/><path d="M184 102v1-1z" class="C"/><path d="M121 103v1-1z" class="B"/><path d="M227 104h1-1z" class="D"/><path d="m94 107 4-2h-2l-1 1-1 1z" class="B"/><path d="M117 104v1-1z" class="C"/><path d="m208 104 1 1 2 1-1-1-2-1m-148 1 1 1-1-1zm1 1v1l2 1-1-2h-1z" class="B"/><path d="m193 106 1 1-1-1m18 0v1l2 1-1-2h-1z" class="C"/><path d="m63 107 1 1-1-1m13 0 1 1h2l-1-1h-2z" class="D"/><path d="M201 107v2h1v1l1 1 1 1-1 2h-1l-1 2-1 1v2l1 1h3v2l1 1v1h1l1 1-2 2-1 1-4 3-1 2-1 1-1 2 2-1 1-1 3-3 2-1 2-2 1-1h1l1-1v5l2 6v3l1-1 1-1 1-1v-1l1-2v-3l-1-2v-6l-2-1v-1l-2-1-1-2-1-1-2-3-2-4-1-1-1-1-2-1z" class="E"/><path d="m198 109 1 1-1-1m17 0 1 2h1l1 1-1-2h-1l-1-1z" class="C"/><path d="m70 110 1 1h4l-1-1h-4z" class="G"/><path d="m197 110-1 2 1-1v-1m20 0 1 1-1-1m12 0 1 1-1-1m-142 1 1 1-1-1zm14 2 1 1-1-1m94 0-2 2h-1l-3 1h-13l-5-1-4 1h-12l-3-1h-2l-3 1h-10l-5-1h-1l-4 1h-7l1 1h1l2 1h5l4 1 5 1 2 2 1 1 1 1h-9l-3 1h-9l1 1h18l3-1h3a60 60 0 0 1 8 0l4 1 4-1h16l1 1h1l1-1h2l-1 1v2l-1 2-1 1v1l-1 2 1-1 1-1h1l4-5 2-3 1-2 3-3 1-1v-1l1-2h1v-2m25 0 1 1-1-1z" class="B"/><path d="m194 115 1 1-1-1m14 0 1 2 1 1 1 2 1 1 2 2 2 2 2 1 1 1 2 1-1-2-1-1-1-1-2-2-3-3-2-2-1-1-2-1z" class="C"/><path d="m238 115 1 1h6l-1-1h-6z" class="B"/><path d="m96 116-2 2v1l-1 1 1-1h1v-1l1-1v-1z" class="C"/><path d="m97 116 1 1-1-1m12 0 1 1-1-1m2 0 1 1h2l-1-1h-2z" class="B"/><path d="m246 116-2 1 1 1v-1h1v-1z" class="D"/><path d="m34 117-1 3-1 4v2l2 1 1 1a233 233 0 0 1 13 10l2 2-3 1-5 1-5 1-7 2h-3v3l-1 2v3l5-2 4-2 5-1 6-1 7-1 3-1h3l-1-2-1-1-2-1-2-2-4-2a137 137 0 0 1-10-8v-1h-1l-1-2 2 1h1l2 1 7 1 3 1 5 1h3v2l1 1 1-1v-2l1-3 1-4v-2l-1 1-3 1-2 1h-2l-2-1h-2l-3-1-6-1-5-1-1-1-1-1-2-2z" class="H"/><path d="m35 118 1 1-1-1m45 0-2 2v1l-1 1 1-1h1v-1l1-1v-1m15 0 1 1-1-1zm131 1v1l2 1-1-2h-1m-189 1v1-1z" class="B"/><use href="#B" x="-117" y="53" class="D"/><path d="M42 121v1-1z" class="B"/><path d="M32 123h1-1m13-1v1-1z" class="D"/><path d="M47 122v1-1m17 0 1 1-1-1z" class="G"/><path d="M51 123v1-1z" class="D"/><path d="M54 123v1-1z" class="B"/><path d="m89 123-2 2v1l-1 1 1-1h1v-1l1-1v-1z" class="C"/><path d="M110 123v1h3l1 1-1 1h1l2-1-1-1h-1l-2-1h-2z" class="B"/><path d="M114 123v1l2 1h-5l-4 1H96l-5 1h-2l-2 2h-1v1l-2 2-2 4a55 55 0 0 0-4 9v2l-1 2v1l1 2-1 1-1 1v3l1-1v-3l1 1v2h2v1l1-1h4l-1-2h2l1 1h2l6-2 2-2 4-2 6-3a58 58 0 0 0 8-6l5-4 3-2 1-1 2-1h2l2 1v1l3 3 5 3 7 1h6l2-1 2-1 2-3 3-1h2l2 1 6 2h3l4-2h2l1-1v-3l2-3v-2l1-1v-1h-3v1l-1-2h-1l-2 1h-36l-5 1h-13l-1-1h-2l-2-1-1-1h-2z" class="G"/><path d="M117 123v2h2l-1-2h-1m99 0 1 1-1-1m13 0 1 1-1-1z" class="B"/><path d="m55 124 1 1h2l-1-1h-2zm8 1h1-1z" class="D"/><path d="m75 124 1 1-1-1m0 41 1-1v-10l1-3a45 45 0 0 1 2-8v-1l1-2a61 61 0 0 1 4-6l1-2 1-2 2-1 2-2h1l2-1-2-1h-2l-2 1-1 2-1 1a59 59 0 0 0-5 7l-1 2-1 3v2l-1 2v1l-1 3-1 5v11z" class="B"/><path d="M214 124v2l1 1v3l1 2v1l-1 2-1 2-1 2h-1l-2 1-4 3-2 1-4 2-1 1-1 1-1 1v1l-1 2v1l-1 2-1 2-3 4v2l-1 1v2h4l1 1 1 1h8l6 2h6l6 2h6v-2a90 90 0 0 0 2-7v-5a38 38 0 0 0-1-10 62 62 0 0 0-5-12l-1-3-2-2-2-3v-1l-2-1-1-1-2-1z" class="H"/><path d="M230 124v1l2 1-1-2h-1m-199 1 1 1-1-1zm65 0 1 1h13l-1-1H96m15 0 1 1-1-1z" class="B"/><path d="M186 126h1-1m44-1 1 1-1-1z" class="C"/><path d="m278 125-1 2 1-1v-1z" class="D"/><path d="m278 126-1 1v2h-3l-5 1h-3l-4 1h-3l-4 1h-5v-2l-1-1v9l1 1v2l1-1v-2h3l3-1h4l4-1v2a28 28 0 0 0 1 6v4l1 3h-3l-7 1h-3l-1-1h-2l1 4v4l1 2 2-1v-1l2-1 4-1h3l4-1h4l3-1h3l2 1 2 2v-2h1l-1-1v-8l-1 1h-1l-4 1-8 1v-3l-1-5v-6l3-1h8v1h2l-1-3v-6l-1-1z" class="H"/><path d="M219 127v1l2 1-1-2h-1m13 0 1 1-1-1z" class="B"/><path d="M51 129v1-1m11 1h1-1z" class="D"/><path d="M221 129v1l2 1-1-2h-1m12 0 1 1-1-1z" class="C"/><path d="m247 129 1 1-1-1m2 0 1 1-1-1m18 0 1 1h2l-1-1h-2z" class="B"/><path d="M271 129v1-1z" class="D"/><path d="m146 130-2 1 1 1v-1h1v-1m4 0v1-1z" class="B"/><path d="m144 132 1 1h29l-1-1h-1l-2-1h-5l-5-1h-9l-2 1-3 1h-2z" class="F"/><path d="m162 130 1 1h3l-1-1h-3m6 0 1 1-1-1z" class="B"/><path d="m182 130-1 1v2l1-1v-2z" class="C"/><path d="M264 130v1-1z" class="D"/><path d="m62 131 1 1-1-1m9 0 1 1-1-1m53 1h5-1l-1-1-1 1h-2m46-1 1 1-1-1m3 0 1 1-1-1m49 0 1 1-1-1z" class="B"/><path d="m234 131 1 2 1 1-1-2-1-1z" class="C"/><path d="M248 131v3l1-1v-1l-1-1m2 0 1 1-1-1z" class="D"/><use href="#B" x="96" y="63" class="B"/><path d="m255 131 1 1h2l-1-1h-2m24 0v3l1-1v-1l-1-1m-238 1 1 1-1-1m2 0 1 1-1-1z" class="D"/><path d="m82 132 1 1-1-1m42 1h1l1 1 1-1h2v1l1 2v-2l-1-1-1-1h-1l-1 1h-2z" class="C"/><use href="#C" x="26" y="42" class="B"/><path d="m222 132 1 1 2 1-1-1-2-1zm-152 1-1 2v1l1-1v-2m11 0 1 1-1-1z" class="C"/><path d="m146 133 1 1-1-1m19 0 1 1h3l-1-1h-3z" class="B"/><path d="M180 134h1-1zm-70 9h3l2-1 2-1 2-3 2-1 1-1 2-1h-2l-2 1h-1l-2 2-4 3-3 2m45-4 2-1 2-1 3-2-1-1h-1l-2 1-1 1-1 1-1 2z" class="C"/><path d="m162 135-1 2-1 1-1 3-2 1-1 1h-1l-1 1-2 1v1l2 2 2-1h4l1-1v-1l1-1 1-1 1-2-4 2 1-2 1-1 1-2 1 1 1 1h2l-1-2-1-1-1-1-2-1z" class="E"/><path d="M270 135v1-1z" class="D"/><use href="#B" x="116" y="67" class="G"/><path d="m49 136 1 1-1-1m19 0-1 2v2l1-1v-3m50 0 1 1-1-1z" class="B"/><path d="M116 142h2l1-1 2-1 1-1 1-1 1-2h-2l-1 1-2 1-1 1-1 1-1 2z" class="E"/><path d="M131 136v1-1z" class="D"/><path d="M166 137v1l1 2h-4v1l-1 1v2l-2 2-1 1-1 1-1 1-1 1v8l-1 1v2h-3l-2 1h-2v2h9l1-2h1l1-1-1-2 1-1 1-1 1-1 2-2 3-5a62 62 0 0 1 8-10h1v-1l2-1h-4l-1 1h-5l-2-1z" class="H"/><path d="m262 136 1 1h2l-1-1h-2m17 0 1 1-1-1z" class="D"/><path d="m130 137-1 1-1 2-2 1-1 2-2 1-1 5-2 2v1l-1 1-3 2v1l-3 3-1 2h-1l-2 2-2 2-1 1-1 2h4l1-1h7v-2h-1l2-1 1-1 2-1 1-1 3-3 2-1 1-1 2-1h1l2-2 2-3a26 26 0 0 0 3-6v-1h1v-2l-6-3h-1v-1h-2z" class="E"/><path d="m225 137 1 1v1l1 2v-2l-1-1-1-1z" class="C"/><use href="#B" x="100" y="69" class="D"/><path d="m134 138 1 1 2 1-1-1-2-1z" class="H"/><path d="m163 138-1 1v2l1-1v-2zm-85 2h1-1zm76-1v1-1zm57 0v1-1z" class="C"/><path d="M238 139v2l1 2v-3l-1-1z" class="B"/><path d="M249 140h1-1zm-201 0v1-1m6 0 1 1-1-1z" class="D"/><path d="M67 141h1-1z" class="C"/><path d="M138 140v3l-1 2v1l-2 3-1 2-1 1-1 1-5 3-1 1-2 1-3 3-2 1-1 1-2 1 1 1h1l2 1h5l3-1 1-1 1-1v-1l2-3 1-1 1-1 2-2 1-1 2-2h1l2-2 4-2 1-1 1-1 1-2 1-2h-5l-4-1-1-1h-2z" class="H"/><path d="m173 140 1 1-1-1m13 0-2 2-1 1-2 2-1 2-1 1v2l2-1 1-1 2-2 1-2 1-2v-2z" class="E"/><path d="m206 142 2-1h1-2l-1 1z" class="C"/><path d="M144 141v1-1m2 0 1 1h2l-1-1h-2z" class="D"/><path d="m161 141-1 2 1-1v-1zm12 0-1 2 1-1v-1z" class="I"/><path d="M209 141v1-1z" class="E"/><path d="M39 142v1-1m18 0 1 1-1-1z" class="D"/><path d="m77 142 1 1-1-1m73 0v4l1-1v-2l-1-1zm23 0 1 1-1-1m32 0v1-1m22 0 1 3 1 4 1 1v2l1-1v-1l-1-3v-2l-1-1-1-1-1-1z" class="C"/><path d="M265 143h1-1m2-1v3l1-1v-1l-1-1zm-232 1v1-1m23 0 1 1-1-1z" class="D"/><path d="M59 144h1-1z" class="B"/><path d="M130 143v3l-1 1 1-1 1-1v-1l-1-1z" class="I"/><path d="M149 143v3l1-1v-1l-1-1m21 1h1-1z" class="E"/><path d="M239 144h1-1z" class="C"/><path d="M30 144v1-1z" class="D"/><path d="M76 144v3l1-1v-1l-1-1m29 4 2-1h1l1-1 1-2-2 1h-1l-1 1-1 2m25-4 1 1-1-1m41 0 1 1-1-1m28 0-2 2h-1 2l1-1v-1z" class="C"/><path d="m56 145 1 1-1-1m9 0v3l1-1v-1l-1-1zm175 0v3l1-1v-1l-1-1m25 0 1 1-1-1zm-214 1v1-1z" class="B"/><path d="M148 146v1-1z" class="E"/><path d="M156 146v1l2 1-1-2h-1z" class="I"/><path d="m168 146-1 2v1l-1 2 1-1 1-2v-2z" class="E"/><path d="M268 146v3l1-1v-1l-1-1m12 0 1 1-1-1z" class="B"/><path d="M43 147v1-1zm61 0v1-1m42 0 1 1-1-1z" class="D"/><path d="M148 147v1-1m8 0 1 1-1-1m13 0 1 1-1-1z" class="C"/><path d="m195 151 1-1 1-1h1l1-1h-3l-1 1v2z" class="E"/><path d="M37 148v1-1z" class="D"/><path d="M65 149h1-1z" class="C"/><path d="m101 148-2 1v1h-1l-3 2-2 1h-1l-2 1h-6l1 1 1 1h3l2-1h2l1-1 2-1 3-2 1-1 1-1v-1z" class="D"/><path d="M103 148v1-1m41 0 1 1-1-1z" class="C"/><path d="m157 148-1 2h2v-2h-1z" class="E"/><path d="m168 148 1 1-1-1m26 0v3l1-1v-1l-1-1z" class="C"/><path d="M229 149h1-1z" class="B"/><path d="M240 148v3l1-1v-1l-1-1z" class="C"/><path d="M266 148v3l1-1v-1l-1-1m13 0 1 1-1-1m-253 1 1 1-1-1z" class="D"/><path d="M32 149v1l2 1-1-2h-1z" class="G"/><path d="M33 149v1l2 1v-2h-2z" class="B"/><path d="M75 149v3l1-1v-1l-1-1m26 0 1 1-1-1m25 1h1-1z" class="C"/><path d="m274 149 1 1h2l-1-1h-2m-242 2h1-1m46-1 1 1-1-1zm151 1h1-1z" class="D"/><path d="M241 150v5l1-1v-3l-1-1zm24 0v1-1z" class="B"/><path d="M34 151v1-1z" class="H"/><path d="M35 152h1-1z" class="D"/><path d="m37 151 1 1-1-1m27 0v3l1-1v-1l-1-1z" class="B"/><path d="M99 151v1-1m42 0 1 1-1-1z" class="C"/><path d="m253 151 1 1-1-1m3 0 1 1h2l-1-1h-2z" class="B"/><path d="M261 151v1-1z" class="D"/><path d="m36 152 1 1h1l3 1 5 2 3 1 2 1 1 1 1 2 1 1 1-1v-1h1v-2l1-2v-2l-1 1h-1l-1 2-2-1h-1l-5-1-7-2-1-1h-2z" class="H"/><path d="m95 154 2-1 1-1-2 1-1 1z" class="C"/><path d="m139 152-1 2 1-1v-1z" class="D"/><path d="m154 152 1 2 1 1v-3h-2m10 0 1 1-1-1z" class="E"/><path d="m165 152-1 2v1l1-1v-2m30 0-1 2v1l1-1v-2z" class="C"/><path d="M230 153h1-1z" class="B"/><path d="M26 153v1-1z" class="D"/><path d="M57 154h1-1z" class="B"/><path d="M77 153v7h2l1-1h1l1-1 1-2 1-1h-2l-1 1-1 1v-1l-1-1-1-1-1-1m11 0 1 1-1-1z" class="D"/><path d="M64 154v10l1-1v-1a23 23 0 0 0 0-6v-1l-1-1m28 2 2-1 1-1-2 1-1 1zm138-2 1 2v7l1-1v-6l-1-1-1-1z" class="C"/><path d="m135 155-1 2 1-1v-1z" class="E"/><path d="m137 155 1 1-1-1m17 0 1 2v2h-2l-1 1h-2 4v-1h1v-3l-1-1z" class="C"/><path d="M230 155v10l1-1v-1a24 24 0 0 0 0-6v-1l-1-1z" class="B"/><path d="M241 155v8l1-1v-6l-1-1z" class="C"/><use href="#B" x="118" y="87" class="D"/><path d="M278 155v1-1z" class="B"/><path d="m76 163 2-1 2-1 6-3h2l2-1h2l-1-1h-6l-1 1h-1l-2 1-1 1-2 1-1 1-1 1v1z" class="C"/><path d="m108 156-2 2-2 2-3 2-1 1-1 1-1 1v2l2-1 1-1 2-1 1-1 1-1 1-1 1-1 1-2v-2z" class="E"/><use href="#B" x="111" y="88" class="D"/><path d="m269 156 1 1h2l-1-1h-2zm14 1h1-1z" class="B"/><path d="M260 157v1-1z" class="D"/><path d="M262 157v1-1z" class="G"/><path d="M56 159h1-1z" class="B"/><path d="M76 159h1-1z" class="G"/><path d="m77 166 3-2 1-1 3-1 2-1 1-2 1-1h-2v1h-1l-3 1-2 1h-1l-1 1-1 1v3zm54-7h1-1z" class="E"/><path d="M132 158v2h1l1-2h-2z" class="C"/><path d="M242 158v3l1-1v-1l-1-1z" class="B"/><path d="M83 159v1-1z" class="I"/><path d="m55 160-1 2v1l1-1v-2zm197 0v2h2l-1-2h-1z" class="D"/><path d="M131 161v1-1m17 0v1-1z" class="C"/><path d="m149 161 1 1h2l-1-1h-2m9 0 1 1-1-1zm-28 2h1-1z" class="E"/><path d="M145 162v1-1z" class="C"/><path d="m147 162-2 1h-1l-1 1 1 1h10l1-1 1-1h-2l-1 1h-2l-2-1-2-1z" class="E"/><path d="m158 162 1 1-1-1m31 0-1 2v1l1-1v-2z" class="C"/><path d="M241 163v5l1-1v-3l-1-1m-177 1v4l1-1v-2l-1-1z" class="B"/><path d="M75 165v3l1-1 1-2h-2z" class="C"/><path d="m120 165 1 1h2l-1-1h-2m4 0 1 1-1-1z" class="E"/><path d="M128 165v1-1z" class="D"/><path d="m130 165 1 1-1-1m14 0 1 1h11l-1-1h-11z" class="C"/><path d="m189 165 1 1 1 1h5l-1-1h-3l-1-1h-2z" class="E"/><path d="M229 165v3l1-1v-1l-1-1z" class="D"/><path d="M230 165v4l1-1v-2l-1-1m-110 1 1 1h2l-1-1h-2m6 0 1 1-1-1m-61 1v3l1-1v-1l-1-1z" class="C"/><path d="M76 167v3l1 1v2-5l-1-1z" class="B"/><path d="m114 167 1 1h2l-1-1h-2m75 0 1 1h4l-1-1h-4z" class="C"/><path d="M198 167v1-1z" class="E"/><path d="M240 167v3l1-1v-1l-1-1m-44 1 1 1h3l-1-1h-3z" class="C"/><use href="#C" x="72" y="78" class="E"/><path d="M229 169h1-1z" class="B"/><path d="M77 170h1-1m126-1 1 1h3l-1-1h-3zm7 1v1-1z" class="C"/><use href="#C" x="83" y="80" class="E"/><path d="M228 171h1-1z" class="D"/><path d="M229 170v4l1-1v-2l-1-1z" class="C"/><path d="M240 171h1-1z" class="B"/><path d="m65 171 1 1-1-1m11 1h1-1m138-1 1 1h3l-1-1h-3z" class="C"/><path d="m224 172 1 1h1l2 1-1-1v-1h-3z" class="E"/><path d="M228 173h1-1z" class="B"/><path d="m66 173 1 1-1-1m11 0 1 1-1-1m145 0 1 1h3l-1-1h-3z" class="C"/><path d="M66 174v3l1-1v-1l-1-1m173 1h1-1zm-100 5 1-1h1l1-1-1-1-1 1-1 1v1z" class="B"/><path d="M142 177v1l2 1-1-2h-1z" class="C"/><path d="m147 177 1 1h2l-1-1h-2m10 0 1 1-1-1z" class="B"/><path d="m158 177-1 2-1 1-1 2v2l-1 2v3h1l1-1v-1l1-1 2 1 2 1h1l2 1v-2h-1v-1l-1-2-1-3-1-2-1-1-1-1z" class="F"/><path d="m159 177 1 1-1-1m7 0 1 1 1 1 2 1-1-1v-1h-1l-2-1z" class="B"/><path d="M173 178h3v10l1-1v-8l-1-2h-2l-1 1m67-1 1 1-1-1z" class="C"/><path d="M242 177v1-1m-183 1 1 1-1-1z" class="B"/><path d="M61 178v1-1m56 0 1 1h2l-1-1h-2z" class="C"/><path d="m120 179 1 2h1l1 1v-4l-2 1h-1z" class="B"/><path d="m123 178 1 1-1-1m5 0-2 2v1l1-1 1-1v-1z" class="C"/><path d="m129 178-1 2v1l-1 1-2-1-1-1-2-1v2l1 1 2 3v2l1 1v2h2v-3l1-2v-1l1-2v-3l-1-1z" class="F"/><path d="M131 179h1-1z" class="C"/><path d="M140 178v2l-1 4v3l1 1 1 1v-6l1 2 1 1v1l1 2h2l1-2v-1l1-1v-2l1 2v1l1 1 1 1 1 1v-3l-2-6v-2h-3v2l-1 1v3l-1-2-1-1v-1l-1-2h-3zm26 0v11h2v-6l1 1h1v1l2 2 1 1 1 1h2v-11h-2v6l-1-1h-1l-1-2-2-1-1-1-2-1zm16 0-1 2v1l-1 1-1 2-1 3v3l2-1h6v1h2v-2l-1-1-1-3v-3l-1-1-1-2h-2z" class="F"/><path d="M245 178v1-1m-188 1v1-1zm55 1h5l-1-1h-2l-2 1z" class="B"/><path d="M113 180v1h1l1 1h1v7l1 2 1-1v-3l1-4v-1l1-1 1-1h-2l-1-1-3 1h-2z" class="F"/><path d="M165 179v10l1-1v-1a24 24 0 0 0 0-6v-1l-1-1m8 0v2l-1 1v2l1-1 1-1v-2l-1-1m8 0 1 1-1-1zm13 0v1-1z" class="B"/><path d="M200 185h-5l1 1v1l2 1h-3l-1-1-1-2v-3h3l4 1-1-2h-1l-1-1h-4l-1 2h-1v1l-1 1v3l1 2h1l1 1 1 1h2l1-1 1-1 1-1 1-1v-2z" class="F"/><path d="M197 179v1-1zm51 0v1-1m-194 1v1-1z" class="B"/><path d="m103 180-1 2v3l1-1v-4z" class="C"/><path d="M105 180v1-1z" class="B"/><path d="M103 181v3l1 5v3h2v-4l2 1 2 2 2 1v-2l-1-4v-5h-2l-1-1-2 1h-3z" class="F"/><path d="m185 180 1 1-1-1m6 0 1 1-1-1m8 0 1 1-1-1m4 3 1-1h1l1-1h1-3v1l-1 1z" class="B"/><path d="M208 180v1-1m41 0 1 1-1-1z" class="C"/><path d="M251 180v1-1m-200 1 1 1-1-1zm46 0 1 1h3l-1-1h-3zm21 0v6l1-1v-2l1-1v-2h-2z" class="B"/><path d="M121 181v1-1zm37 0 1 2 1 1-1-2-1-1m13 0 1 1-1-1z" class="C"/><path d="m180 181 1 1-1-1m3 0-1 2h2v-2h-1z" class="B"/><path d="M204 181v2l-1 1v4l-1 1v2l2 1h5l-1-1-2-2-1-1h4v-1h-1l-1-2-1-1v-1h4v-2h-6z" class="F"/><path d="m213 183 2-1h1-2l-1 1m39-2v1-1z" class="C"/><path d="m94 183 1 5 1 5h4l2-1-1-1h-2l-2-1 2-1 1-1v-1l1-1h-4l1-1 1-1 2-1-1-1h-4l-2 1z" class="F"/><path d="M111 182v4l1-1v-2l-1-1z" class="B"/><path d="M114 182v1-1z" class="C"/><path d="M115 183h1-1zm14-1 1 1-1-1m15 0 1 2h1v-2h-2z" class="B"/><path d="M154 183h1-1zm40-1-1 1v2l1-1v-2z" class="C"/><path d="m195 182-1 2v2l1 1 1 1v-3h1l1-1-1-1-2-1z" class="I"/><path d="m214 182-1 2v1l-1 2v1l-1 2v3l1-1 1-1 1-1 1-2v2l1 1v3l1-1h1l1-1 3-3v6h2v-10l-1-2-1 1h-1l-1 1-2 4v-2l-1-2v-1l-1-2h-2z" class="F"/><path d="M256 182v1-1m-210 1v1-1zm37 4 1-1 1-1h1l1-1h-3l-1 1v2z" class="B"/><path d="M84 184v5l1 3v3h2v-4h2l1-1h2v-3l-1-2-1-1h-6z" class="F"/><path d="M90 183v1l2 1v-1l-2-1z" class="B"/><path d="M106 184h1-1z" class="C"/><path d="M107 184h1-1z" class="I"/><path d="M138 183v4l1-1v-2l-1-1m3 0v3l2-1v-1l-2-1m7 0 1 1-1-1m3 1h1-1m6-1v1l2 1-1-2h-1zm5 1h1-1m7-1v1-1m10 0 1 1-1-1z" class="B"/><path d="M182 183v2h2v-2h-2z" class="C"/><path d="M186 184h1-1z" class="B"/><path d="m189 183 1 1-1-1m9 0v1l2 1v-2h-2m4 0v4l1-1v-2l-1-1z" class="C"/><use href="#C" x="75" y="93" class="B"/><path d="M217 183v3l1-1v-1l-1-1zm-173 1 1 1-1-1m32 0v1-1m21 0v2h3l-1-1-2-1zm18 0v4l1-1v-2l-1-1m9 0 1 1-1-1m4 0v3l1-1v-1l-1-1m20 0v1l-1 2h1v-1h1v-1l-1-1zm15 1h1-1m5-1v4l1-1v-1l1-2h-2m10 0 1 1-1-1z" class="C"/><path d="M189 184v3l1-1v-1l-1-1m3 0v3l1-1v-1l-1-1m3 0 1 1h3l-1-1h-3z" class="B"/><path d="M224 184v6l1-1v-4l-1-1z" class="C"/><use href="#B" x="73" y="116" class="B"/><path d="M232 184v1-1m27 0 1 1-1-1z" class="C"/><path d="M261 184v1-1m-220 1v1-1z" class="B"/><path d="m75 186-2 1-1 1-1 2v2l1 2v1l1 1h1l1 1h3l2-1 1-1 1-2v-2l-1-2v-1l-1-1-1-1h-4z" class="F"/><path d="M107 185v1-1m18 0v4l1-1v-2l-1-1z" class="B"/><path d="m142 185-1 1v2l1-1v-2zm11 0-1 1v3l1-1v-3zm34 1h1-1z" class="C"/><path d="M200 185v3l1-1v-1l-1-1m6 0 1 1h2l-1-1h-2m6 0 1 1-1-1z" class="B"/><path d="M228 185v2l-2 6v2l2 1h5l-1-1-2-1v-1l-1-1h4l-1-1v-1l-1-2-1-1h2l2 1v-1l-1-1-1-1h-4z" class="F"/><path d="m263 185 1 1-1-1m-225 1-2 1h-1l-1 1h3l2-1-1-1z" class="B"/><path d="M40 186v1-1z" class="C"/><path d="M87 186v2h2v-2h-2z" class="I"/><path d="M89 187h1-1m3-1v3l1-1v-1l-1-1z" class="B"/><path d="M101 187h1-1z" class="C"/><path d="M103 186v4l1-1v-2l-1-1m7 0 1 1-1-1m43 0v3l1-1v-1l-1-1m4 0 1 1-1-1m6 0 1 1-1-1m8 0 1 1-1-1m24 0 1 1-1-1m14 1h1-1m8-1 1 2 1 1-1-2-1-1m2 0 1 1-1-1m8 1h1-1m7-1 1 1-1-1z" class="B"/><path d="M237 186v2l-2 7v3h2v-2l1-1v-1l1-2 1 2 1 2v1l1 2h2l1-2v-1l1-3v-5l-1 1-1 1-1 2v2l-1-2-1-1-1-2v-1l-1-2h-2z" class="F"/><path d="m265 186 1 1 2 1-1-1-2-1zm-171 2h1-1z" class="B"/><path d="m110 187 1 1-1-1m9 0v3l1-1v-1l-1-1z" class="C"/><path d="M128 188h1-1m15-1 1 1-1-1m6 1h1-1z" class="B"/><path d="m156 187 1 1h4l-1-1h-4m15 0 1 1-1-1z" class="C"/><path d="M177 187v3l1-1v-1l-1-1m10 0 1 1-1-1z" class="B"/><path d="m189 187 1 1-1-1m4 0 1 1-1-1m3 0-2 1 1 1v-1h1v-1z" class="C"/><path d="m197 187 1 1-1-1m5 0v3l1-1v-1l-1-1zm28 0 1 1h2l-1-1h-2zm-168 1v1-1z" class="B"/><path d="M60 189v2l1 4v2l1 1 1 1 1 1v-4l2 1 1 1 1 1h2l-1-2v-1h-1l-1-1 1-2v-4h-2l-1-1-2 1h-3z" class="F"/><path d="m75 188-1 2v1l1 1v1l1 1h2v-4l-1-2h-2z" class="I"/><path d="M106 188v4l1-1v-2l2 2h1l-1-1v-1h-1l-2-1zm32 0v1l2 1-1-2h-1zm67 1h1-1z" class="B"/><path d="M206 188v2h1l1-2h-2z" class="C"/><path d="m211 188 1 1-1-1m3 0 1 2v2-3l-1-1z" class="B"/><path d="M33 189v2h1l1-2h-2z" class="C"/><path d="M59 189v3l1-1v-1l-1-1m11 0v4l1-1v-2l-1-1z" class="B"/><path d="M78 190h1-1m4-1v5l1-1v-3l-1-1m10 0 1 1-1-1m2 0v3l1-1v-1l-1-1z" class="C"/><path d="M112 190h1-1z" class="B"/><path d="M151 189v1-1m3 0 1 1-1-1m9 0v1-1z" class="C"/><path d="m173 189 1 1h2l-1-1h-2m6 0 1 1-1-1m6 0 1 2h1l-1-2h-1zm14 0-1 2 1-1v-1z" class="B"/><path d="M214 190h1-1z" class="C"/><path d="M221 189v6l1-1v-4l-1-1z" class="B"/><path d="M226 190h1-1zm17 0h1-1m4-1 1 1-1-1z" class="C"/><path d="m248 189 1 2v1h1l1 1-1-1v-1l-1-1-1-1z" class="B"/><path d="m249 189 1 1v1h1l-1 4-1 3v3l1-1 1-1 2-3 1-1 1-1 1-1-1-1-1-1-1-1h-1l-1-1h-2z" class="F"/><path d="M252 189v1-1z" class="B"/><path d="m253 189 1 1-1-1m17 0v3l1-1v-1l-1-1zm-218 1v1-1z" class="C"/><path d="m53 190 1 1h2l-1-1h-2m11 0v1l1 2v-2l-1-1m4 0v3l1-1v-1l-1-1m5 1h1-1m17-1 1 1-1-1zm9 0 1 1h2l-1-1h-2z" class="B"/><path d="m103 190-1 2h2v-2h-1m5 0 1 1-1-1zm19 0v1-1m58 0 1 1-1-1m2 0 1 1-1-1m4 0 1 1-1-1m8 0 1 1-1-1zm10 0v2h1l1-2h-2z" class="C"/><path d="M213 191h1-1z" class="B"/><path d="m220 190-1 2v1l1-1v-2z" class="C"/><path d="M224 190v3l1-1v-1l-1-1m9 1h1-1zm13 0h1-1m9-1v1l2 1-1-2h-1z" class="B"/><path d="M49 192v2l1 1v3l1 2 1 1 1 1 1 1v-3l-1-1 2-1 1-1 1-1 1-1v-1l-1-1-1-1-2-1h-2l-1 1h-2z" class="F"/><path d="M64 191v1-1z" class="I"/><path d="m79 191 1 1-1-1m5 1h1-1m3-1v4l1-1v-2l-1-1z" class="B"/><path d="M89 191v1-1z" class="C"/><path d="m95 191 1 1v1h1v1h2l-1-1-1-1-2-1m15 0 1 1-1-1zm83 0 1 1h3l-1-1h-3z" class="B"/><path d="m34 192 1 1-1-1m24 0v2h1l1-2h-2z" class="C"/><path d="m204 192 1 1h2l-1-1h-2m4 0 1 1-1-1z" class="B"/><path d="m213 192 1 1-1-1m2 0 1 1-1-1m14 0v2h2l1-1-1-1h-2zm9 0 1 2 1 1-1-2-1-1m4 0 1 1-1-1m4 0 1 1-1-1m10 0 1 1-1-1z" class="C"/><path d="M270 193h1-1m-236 1h1-1m18-1 1 1-1-1z" class="B"/><path d="m53 193-1 2 1-1v-1z" class="C"/><path d="M54 193v1l1 2v-2l-1-1m9 0 1 1-1-1z" class="B"/><path d="M84 194h1-1m11-1 1 1-1-1m4 0 1 1h2l-1-1h-2z" class="C"/><path d="M212 193v1-1m6 0-1 2 1-1v-1z" class="B"/><path d="M224 193v2h2l-1-2h-1m10 1h1-1zm19 0h1-1m-218 1h1-1z" class="C"/><path d="M53 194v2h1l1-2h-2z" class="I"/><path d="M58 195h1-1m2 0h1-1zm172-1v1-1m5 1h1-1m8 0h1-1z" class="B"/><path d="M249 195h1-1m20-1 1 1-1-1zm-46 1v1-1zm-165 1 1 1-1-1m2 1h1-1m4-1v4l1-1v-2l-1-1z" class="C"/><path d="M229 196v1-1m3 0 1 1-1-1z" class="B"/><path d="M268 197h1-1z" class="C"/><use href="#B" x="-80" y="129" class="B"/><path d="m78 197 1 1-1-1m23 4v1h6l1-1h7l1-1h11l1-1h16l1-1h17l1 1h13l1 1h12l1 1h7l1 1h5l1 1 2 1-1 1 1-1 1-2h-2l-4-1-3-1h-5l-5-1h-5l-2-1h-13l-2-1h-25l-5 1h-11l-6 1h-6l-2 1h-5l-2 1h-3m133-4 1 1-1-1z" class="C"/><path d="M36 199h1-1m14-1 1 1-1-1m5 0v1-1z" class="B"/><path d="m144 198 1 1h18l-1-1h-18z" class="D"/><path d="m244 198-1 2 1-1v-1z" class="B"/><path d="M248 198v3l1-1v-1l-1-1zm-198 2h1-1z" class="C"/><use href="#B" x="-28" y="131" class="D"/><path d="m102 202 1 1 1 2 1 1 2 1 1 1 3 1a91 91 0 0 0 11 5l4 1 3 1 4 1 5 1h4l6 1h11l5-1h4l7-2 6-1 5-2 2-1 3-1 2-1 5-2 3-2 2-1v-2l-2-1h-4l-4-1h-5l-4-1h-7l-3-1h-41l-5 1h-9l-2 1h-6l-3 1h-6z" class="H"/><path d="M176 199v1-1zm-61 1 1 1h2l-1-1h-2m71 0 1 1h3l-1-1h-3z" class="D"/><path d="M267 201h1-1m-230 1h1-1z" class="B"/><path d="m107 201 1 1h2l-1-1h-2m26 0 1 1-1-1z" class="D"/><use href="#B" x="-21" y="133" class="G"/><path d="M137 201v1l2 1-1-2h-1m3 0 1 1h5l-1-1h-5m10 0 1 1-1-1z" class="D"/><use href="#B" x="-4" y="133" class="G"/><path d="m157 201 1 1h2l-1-1h-2m5 0 1 2 1 2v6l1 3 1-1v-11h5l-1-1h-8m33 0 1 1h2l-1-1h-2z" class="D"/><path d="M250 201v1-1z" class="C"/><path d="m51 202 1 1-1-1m48 0 1 2h1l1 1-1-1v-1l-1-1h-1z" class="B"/><path d="M101 203h1-1z" class="D"/><path d="M133 214h5l1-2v-2l-1-1-1-1-1-1v5h-2v-7l1-2 2 1 1 1h1l-1-2v-1h-3l-1 1-1 1-1 1v7l1 2z" class="F"/><path d="M140 202v10l1 2v-11l-1-1z" class="B"/><path d="M141 202v11h2v-5l1 2 1 1v1l1 2 1-1v-8l-1-1-1-1-1-1h-3zm8 11h4l1-1 1-1v-1l1-1v-2l-1-1v-2l-1-1h-3l-1 1-1 1v8zm9-11-1 2v6l1 1 1 1 1 1h4v-11h-2v10l-1-1-1-1-1-2v-5l-1-1z" class="F"/><path d="M159 202v9l1-1v-7l-1-1z" class="B"/><path d="M166 202v11h2v-2l1-1v-2l2 1 1-2v-5h-6z" class="F"/><path d="m172 202 1 1-1-1m30 0 1 1 2 1-1-1-2-1zm-41 2h1-1z" class="D"/><path d="m266 203 1 1-1-1m-228 1 1 1-1-1m48 0v1-1m14 0 1 1-1-1m2 0 1 1 1 2 1 1 1 1 2 1 5 2h1v1h2l-1-1h-1v-1l-2-1-3-1-2-1-1-2h-1l-1-1-2-1z" class="C"/><path d="M131 204v7l1-1v-5l-1-1z" class="D"/><path d="M134 204v7l1-1v-5l-1-1z" class="G"/><path d="M136 204v1l2 1-1-2h-1z" class="B"/><path d="M143 205h1-1z" class="H"/><path d="M144 205h1-1z" class="G"/><path d="M147 204v10l1-1v-1l1-4v-2l-1-1-1-1m4 0v7l1-1v-5l-1-1z" class="D"/><path d="M152 204v6l1-1v-4l-1-1z" class="H"/><path d="m168 204 1 2 1 1-1-2-1-1z" class="D"/><path d="M169 205h1-1z" class="H"/><path d="m203 204-1 1-1 1-1 1-3 2-2 1h-1l-2 1h4l1-1 2-1 2-1 1-1 1-1v-2z" class="C"/><path d="m204 204 1 1-1-1m62 0v1l2 1-1-2h-1m-231 3h1l2-1h-2l-1 1z" class="B"/><path d="M82 205v1-1z" class="C"/><path d="M84 205v1-1z" class="B"/><path d="M147 205v4l1-1v-2l-1-1z" class="H"/><path d="M161 205v6l1-1v-4l-1-1z" class="G"/><path d="m218 205-1 2 1-1v-1z" class="C"/><use href="#B" x="64" y="137" class="B"/><path d="M223 205v1-1m43 0 1 1-1-1m-230 1 1 1-1-1m42 0v1-1z" class="C"/><path d="M80 206v1-1zm-4 1v1-1m13 0 1 1-1-1m17 0 1 1-1-1z" class="B"/><path d="M230 207v1-1m40 0 1 1-1-1z" class="C"/><path d="m72 208 1 1-1-1m18 0v1l2 1-1-2h-1z" class="B"/><path d="M144 210h1-1z" class="G"/><path d="M168 209v5l1-1v-3l-1-1m26 0 1 1-1-1z" class="D"/><path d="M238 210v1-1zm40 0v1-1m-255 1 1 1-1-1z" class="B"/><path d="M25 211v1-1z" class="C"/><path d="m64 211 1 1-1-1m30 0 1 2h1l-1-2h-1z" class="B"/><path d="m210 211-1 2 1-1v-1z" class="C"/><path d="m211 211 1 1-1-1m29 0v4l1-1v-2l-1-1z" class="B"/><path d="M279 211v1-1z" class="C"/><path d="M281 211v1-1m-260 1v1-1z" class="B"/><path d="m40 223 2 1 1 1 4 1a132 132 0 0 0 13 3h10v-2l-1-1v-2l-1-2-3-5-1-2v-1h-1v-2h-2l-1 1h-2l-3 2-5 2-3 2-2 1-3 1v1h-1l-1 1z" class="E"/><path d="M63 213h1-1z" class="D"/><path d="m116 212 1 1 1 1h2l-1-1-1-1h-2zm70 1h4-4z" class="B"/><path d="M241 212v3l-1 2v1l-2 2v1l-2 2v1l-1 3 2 2h9l6-2 5-1 2-1h2l1-1 2-1-1-1h-1v-1l-2-1-1-1a185 185 0 0 0-15-6l-1-1h-2z" class="E"/><path d="m283 212 1 1-1-1m-268 1 1 2h1l1-2h-3z" class="B"/><path d="M17 215h1l1-1h1v-1l-2 1-1 1z" class="C"/><path d="m97 213 1 1 2 1-1-1-2-1z" class="B"/><path d="M285 213v2h2v-2h-2z" class="C"/><path d="M287 213v2h2v-2h-2z" class="B"/><path d="M120 214v1-1z" class="C"/><path d="M122 214v1-1zm62 0v1-1z" class="B"/><path d="M186 214v1-1m18 2 2-1h1-2l-1 1z" class="C"/><path d="m18 215 1 1h2l-1-1h-2zm107 0v1-1zm56 0v1-1z" class="B"/><path d="M183 215v1-1zm-157 1v1-1z" class="C"/><use href="#B" x="-28" y="148" class="B"/><path d="M129 218h3l-1-2h-1l-1 2zm45-1 1 1h3l-1-1h-3z" class="C"/><path d="M178 216v1-1z" class="B"/><path d="M279 216v1-1zm-250 1v1-1z" class="C"/><path d="m104 217 1 1 2 1-1-1-2-1z" class="B"/><path d="m133 217 1 1 1 1h3l-1-1h-2l-2-1z" class="C"/><path d="m134 217 1 1h2l-1-1h-2m36 0v1-1z" class="D"/><path d="m168 218 1 1h4l-1-1h-4z" class="C"/><path d="M173 217v1-1z" class="B"/><path d="M275 217v1-1z" class="C"/><path d="M277 217v1-1m-248 1 1 1h2l-1-1h-2zm110 0v1-1z" class="B"/><path d="m140 218 1 1v1h3l-1-1-1-1h-2z" class="C"/><path d="m142 218 1 1h2l-1-1h-2m19 0 1 1h2l-1-1h-2z" class="D"/><path d="m162 219 1 1 2-1 1-1h-2l-2 1z" class="C"/><path d="M167 218v1-1z" class="B"/><path d="M272 218v1-1z" class="C"/><path d="m273 218 1 1h2l-1-1h-2m-240 1 1 1-1-1zm112 0v1-1z" class="B"/><path d="m146 219 1 1h1l2 1h5l3-1h2l-1-1h-13zm123 0-1 2 1-1v-1z" class="C"/><path d="M271 219v1-1m-236 1 1 1-1-1zm75 0 1 1 1 1h2l-1-1-1-1h-2zm85 0v1-1zm-2 1v1-1zm75 0 1 1-1-1m-232 2h1-1m32-1v1l2 1-1-2h-1m48 0v1-1zm74 0v1-1zm-71 1v1-1zm68 0v1-1zm81 1h1-1zm-146 0v1-1zm62 0v1-1m50 0 1 1-1-1m-199 1 1 1-1-1z" class="B"/><path d="M70 225v3l1-1v-1l-1-1z" class="D"/><path d="M126 225v1-1z" class="B"/><path d="M128 225v1-1m50 0v1-1z" class="C"/><path d="M180 225v1-1zm-50 1v1-1z" class="B"/><path d="m131 226 1 1h2l-1-1h-2m41 0 1 1h2l-1-1h-2z" class="C"/><path d="M176 226v1-1m93 0 1 1-1-1m-235 1 1 1-1-1m100 0 1 1h2l-1-1h-2z" class="B"/><path d="M138 227v1-1m30 0v1-1z" class="C"/><use href="#C" x="38" y="137" class="B"/><path d="M144 228v1-1z" class="C"/><path d="m145 228 1 1h4l-1-1h-4z" class="B"/><path d="m150 228 1 1h6l-1-1h-6z" class="C"/><path d="m157 228 1 1h6l-1-1h-6zm113 0v1l2 1-1-2h-1zm-35 1v1l2 1-1-2h-1z" class="B"/><path d="m237 230 1 1 2 1-1-1-2-1z" class="C"/><path d="M272 230v1l2 1-1-2h-1zm-206 1v1-1m172 0 1 1-1-1zm-175 1v1-1m178 0v1-1z" class="B"/><path d="M243 232v1-1z" class="C"/><path d="M274 232v1l2 2h-17l1 1h17l-1-2v-1h-1l-1-1m-245 1 1 1-1-1z" class="B"/><use href="#B" x="-99" y="165" class="C"/><path d="m59 233 1 1-1-1m2 0 1 1-1-1m182 0 1 1h2l-1-1h-2z" class="B"/><path d="m246 233 1 1h2l-1-1h-2m28 0v2h2l-1-2h-1z" class="C"/><path d="m27 234 1 1h1v1h15l-1-1H30l-1-1h-2z" class="B"/><path d="M29 234v1-1m2 0 1 1-1-1m2 0 1 1h17l-1-1H33z" class="C"/><path d="m51 234 1 1h3l-1-1h-3m198 0 1 1h4l-1-1h-4z" class="B"/><path d="m254 234 1 1h9l-1-1h-9m13 0 1 1h5l-1-1h-5z" class="C"/><defs ><path id="B" d="m155 68 1 1h2l-1-1h-2z"/><path id="C" d="m131 90 1 1h3l-1-1h-3z"/></defs></svg>